<svg xmlns="http://www.w3.org/2000/svg" xmlns:xlink="http://www.w3.org/1999/xlink" viewBox="0 0 232.91 46.44"><defs><style>.cls-1{fill:url(#名称未設定グラデーション_23);}.cls-2{fill:#fff;}.cls-3{fill:#f98f4e;}</style><linearGradient id="名称未設定グラデーション_23" x1="1.91" y1="38.9" x2="232.91" y2="38.9" gradientUnits="userSpaceOnUse"><stop offset="0.06" stop-color="#fff"/><stop offset="1" stop-color="#144b97"/></linearGradient></defs><g id="レイヤー_2" data-name="レイヤー 2"><g id="レイヤー_1-2" data-name="レイヤー 1"><path d="M3.19,12.37A15.07,15.07,0,0,1,1,14.26a4.51,4.51,0,0,0-1-1.45,13.65,13.65,0,0,0,2.52-2.06A9.9,9.9,0,0,0,4.3,8.4H2.19A14.86,14.86,0,0,0,.4,8.49V6.82a15.16,15.16,0,0,0,1.8.09H5a6.48,6.48,0,0,0,.44-1.62l1.87.21c-.1.23-.13.29-.33.84-.06.18-.09.26-.21.57h5.36a14,14,0,0,0,1.75-.09V8.49a14.38,14.38,0,0,0-1.75-.09h-6c-.27.49-.45.79-.74,1.26h5.13a15.19,15.19,0,0,0,1.56-.06c0,.46-.06.94-.06,1.71v6.25a1.29,1.29,0,0,1-.57,1.22A4,4,0,0,1,9.69,19c-.35,0-.63,0-1.38-.05a4.89,4.89,0,0,0-.39-1.57,13.71,13.71,0,0,0,1.74.13c.66,0,.75-.06.75-.42V16H4.8v1.28c0,.81,0,1.33.07,1.87H3.1a16.72,16.72,0,0,0,.09-1.89Zm7.22-1.27H4.8v1.09h5.61ZM4.8,13.53v1.11h5.61V13.53Z"/><path d="M21.13,7.14c0-.47,0-.72,0-1.38a9.61,9.61,0,0,0,1.09,0h2.21a5.48,5.48,0,0,0,1.09-.07l.86,1a8.49,8.49,0,0,0-.47,1.14,24.53,24.53,0,0,1-1.15,2.56,6.27,6.27,0,0,1,1.06,1.92A5.15,5.15,0,0,1,26,13.89a1.7,1.7,0,0,1-.81,1.71,3.85,3.85,0,0,1-1.9.27A3.67,3.67,0,0,0,23,14.29a5.22,5.22,0,0,0,.66.06c.59,0,.78-.16.78-.66a4.06,4.06,0,0,0-.33-1.54,5.49,5.49,0,0,0-1.05-1.53,18,18,0,0,0,1.4-3.38H22.71v10.2c0,.63,0,1.19.07,1.73H21a13.47,13.47,0,0,0,.09-1.73ZM28,12.6v4.3a17.25,17.25,0,0,0,2.49-.64l.05,1.51c-1.56.47-2.57.71-4.79,1.2a7.77,7.77,0,0,0-.76.21l-.3-1.69a12.91,12.91,0,0,0,1.77-.26V7.45c0-.67,0-1-.06-1.6a7.83,7.83,0,0,0,1.44.07h4.29a8.19,8.19,0,0,0,1.39-.07c0,.36,0,.7,0,1.66V11a13.66,13.66,0,0,0,.06,1.63l-.42,0,1.21,1a3.37,3.37,0,0,0-.42.31c-.46.41-1.38,1.11-2,1.56a7.74,7.74,0,0,0,2.76,2.13,5.82,5.82,0,0,0-.95,1.53,9.62,9.62,0,0,1-3.13-2.91,10.07,10.07,0,0,1-1.49-3.67Zm0-4H32V7.36H28Zm0,2.65H32V9.9H28Zm2.52,1.37a7.88,7.88,0,0,0,.59,1.69,10.34,10.34,0,0,0,2-1.68H30.52Z"/><path d="M43.86,10.26a14.47,14.47,0,0,1-2.4,1.29A7.4,7.4,0,0,0,40.59,10a14,14,0,0,0,3.76-2.09,9.71,9.71,0,0,0,2.37-2.52h1.79A9,9,0,0,0,51,7.9a16.08,16.08,0,0,0,3.86,2,6.54,6.54,0,0,0-.83,1.68,16.66,16.66,0,0,1-2.56-1.37v1.17a12.58,12.58,0,0,0-1.35-.06h-5c-.44,0-.89,0-1.29.06ZM43,14.13a14.16,14.16,0,0,0-1.77.09V12.48a14.85,14.85,0,0,0,1.77.09h9.35a14,14,0,0,0,1.75-.09v1.74a13.81,13.81,0,0,0-1.75-.09H47.22A16.81,16.81,0,0,1,45.66,17c2.65-.15,2.65-.15,4.75-.38-.48-.52-.73-.79-1.57-1.66l1.48-.66a31.06,31.06,0,0,1,3.47,4l-1.44.95c-.5-.74-.65-.95-.9-1.31-1.25.17-2.15.27-2.7.33-1.49.14-4.46.41-5.06.45a18.91,18.91,0,0,0-1.93.21l-.24-1.83c.4,0,.66.05.87.05l1.32-.06a15.49,15.49,0,0,0,1.6-3Zm7.11-4.34h.66a12.37,12.37,0,0,1-3.13-2.91,13.19,13.19,0,0,1-3.12,2.91h5.59Z"/><path d="M64.9,17.67A10.58,10.58,0,0,0,65,19.2H63.16a8.53,8.53,0,0,0,.09-1.56V13.87a10.35,10.35,0,0,1-1.66,1.28,5.68,5.68,0,0,0-.77-1.56,10.25,10.25,0,0,0,2.58-2A8.84,8.84,0,0,0,65,9.25H62.59a11.44,11.44,0,0,0-1.26.06V7.65a10.24,10.24,0,0,0,1.19.06h.75V6.45a6.84,6.84,0,0,0-.09-1.14H65a6.32,6.32,0,0,0-.09,1.17V7.71h.62a5.37,5.37,0,0,0,.87,0l.72.78a3.78,3.78,0,0,0-.33.63,12.58,12.58,0,0,1-1.5,2.57,8.82,8.82,0,0,0,2.38,1.9A6.38,6.38,0,0,0,66.84,15a8.33,8.33,0,0,1-1.94-1.69ZM71.26,17h1.8a12.81,12.81,0,0,0,1.71-.09v1.82a11.52,11.52,0,0,0-1.71-.11H67.93a11.25,11.25,0,0,0-1.69.11V16.87A13.52,13.52,0,0,0,68,17H69.6V11.1H68.47c-.51,0-1,0-1.47.07V9.48a10.3,10.3,0,0,0,1.47.07H69.6V6.91a10.05,10.05,0,0,0-.11-1.56h1.88a8.82,8.82,0,0,0-.11,1.56V9.55h1.59a9.83,9.83,0,0,0,1.47-.07v1.69c-.48,0-.94-.07-1.47-.07H71.26Z"/><path d="M96,3.55v2.2c0,8.53-.36,10.77-2.08,14.07a5.48,5.48,0,0,0-1.83-1.74c1.45-2.52,1.77-4.6,1.77-12.2,0-2.27,0-3.55-.11-4.39a22.28,22.28,0,0,0,2.42.11h5.31V1.53a7.18,7.18,0,0,0-.11-1.28h2.55a6,6,0,0,0-.11,1.35H109a20.81,20.81,0,0,0,2.43-.13V3.65a24.33,24.33,0,0,0-2.48-.1h-1.11V4.3h1.49a18.75,18.75,0,0,0,1.93-.08V5.86a15.79,15.79,0,0,0-1.91-.09h-1.51v1a5.31,5.31,0,0,0,.11,1.2,13.18,13.18,0,0,0-1.73-.07h-5c-.65,0-1.07,0-1.56.07a7.15,7.15,0,0,0,.07-1.2v-1H98.59a14.42,14.42,0,0,0-1.91.09V4.24c.53,0,.95.06,1.93.06h1.1V3.55Zm3.36,13.31c-.9,0-1.24,0-1.76.06a3.29,3.29,0,0,1,0-.37c0-.15,0-.64,0-1V12.18a9,9,0,0,0-.09-1.39,15,15,0,0,0,1.81.06h3.34v-.73H98.36a19.15,19.15,0,0,0-2,.08V8.4a17.63,17.63,0,0,0,2,.08h11.28a18.4,18.4,0,0,0,2-.1v1.85a11.81,11.81,0,0,0-1.93-.11h-5v.73h3.68c.84,0,1.11,0,1.64-.06a7.31,7.31,0,0,0-.09,1.47v3.28a6,6,0,0,0,.07,1.38,11.89,11.89,0,0,0-1.64-.06H107A14.77,14.77,0,0,0,111.84,18a7,7,0,0,0-1,1.87A15.68,15.68,0,0,1,105.14,18l1.28-1.09h-5.2L102.46,18a16.86,16.86,0,0,1-5.88,1.83A5.4,5.4,0,0,0,95.46,18a15.1,15.1,0,0,0,5.06-1.15Zm.38-4.56v.8h3v-.8Zm0,2.21v.82h2.94v-.82ZM101.83,4.3h3.86V3.55h-3.86Zm0,2.19h3.86V5.77h-3.86Zm2.89,6.61h3.13v-.8h-3.13Zm0,2.23h3.13v-.82h-3.13Z"/><path d="M131.65,2.65A11.8,11.8,0,0,0,131.52.5H134a11.38,11.38,0,0,0-.13,2.12V5.79h.61a7.32,7.32,0,0,0,1.53-.1V7.92a10.08,10.08,0,0,0-1.53-.09h-.61v5.48c.78-.29,1.12-.44,2.12-.9l.07,2.31c-2.21,1-2.54,1.09-4.22,1.72-1.24.48-1.79.67-2.27.86l-.44-2.41a17.72,17.72,0,0,0,2.54-.76V7.83h-.57a8.33,8.33,0,0,0-1.74.13V5.67a8.75,8.75,0,0,0,1.76.12h.55ZM148.53,19a18.24,18.24,0,0,0-2.42-.14h-8.58a18,18,0,0,0-2.4.14V16.67a19.16,19.16,0,0,0,2.4.13h8.61a19.1,19.1,0,0,0,2.39-.13ZM148.34,3.4a21.16,21.16,0,0,0-2.41-.12h-7.84a20.79,20.79,0,0,0-2.39.12V1.07a15.17,15.17,0,0,0,2.39.15H146a15.34,15.34,0,0,0,2.39-.15ZM138.87,15a13.79,13.79,0,0,0-2.16.09,19.49,19.49,0,0,0,.08-2.33V7.12a20.89,20.89,0,0,0-.08-2.37,21.72,21.72,0,0,0,2.48.1h5.56a19,19,0,0,0,2.48-.1,16.86,16.86,0,0,0-.11,2.54v5.24a15.19,15.19,0,0,0,.11,2.54,19.31,19.31,0,0,0-2-.06ZM139,8.94h5.88v-2H139Zm0,4h5.88v-2.1H139Z"/><path d="M166,17.93a11.18,11.18,0,0,0,2.31-4.6l2.08.57a15.74,15.74,0,0,1-2.43,5.31Zm15.6-13a13,13,0,0,0,1.35-.06c0,.31,0,.65,0,1.22v5.6c0,.53,0,.91,0,1.22-.65,0-.86-.06-1.3-.06h-5.38A15.75,15.75,0,0,1,178.6,15l-1.55,1.47a22.61,22.61,0,0,0-2.71-2.65l1.18-1h-5c-.76,0-1.24,0-1.93.08V10.81a13.83,13.83,0,0,0,1.93.09h10.1V9.72h-9.79a17.8,17.8,0,0,0-1.91.09v-2a16,16,0,0,0,1.91.08h9.79V6.8h-9a15.51,15.51,0,0,0-1.55.07v-1a19.9,19.9,0,0,1-2.69,2.06A10.23,10.23,0,0,0,166.11,6a14.94,14.94,0,0,0,6-6l2.63.46c-.36.55-.44.65-.78,1.11h3.32a11.08,11.08,0,0,0,2-.1l1.22,1.15a15.76,15.76,0,0,0-1.05,1.18,10,10,0,0,1-.94,1.09Zm-8.18,11.7c0,.71.12.75,2.35.75,1.89,0,2.5-.08,2.83-.37s.34-.8.4-1.85a7.72,7.72,0,0,0,2.18.69c-.25,1.85-.42,2.39-.92,2.86s-1.81.71-4.81.71c-3.63,0-4.24-.29-4.24-2.06V15a7.83,7.83,0,0,0-.13-1.7h2.44a8.45,8.45,0,0,0-.1,1.7Zm2.33-11.7A10.06,10.06,0,0,0,177,3.42h-4.45a15,15,0,0,1-1.36,1.47h4.58Zm6.5,8.19a32.51,32.51,0,0,1,3.24,4.49l-2,1.43a21.39,21.39,0,0,0-3-4.72Z"/><path d="M202.9,8.23a9.73,9.73,0,0,0,1.68.11h1.58a13.36,13.36,0,0,0,1.59-.09,21.83,21.83,0,0,0-.08,2.27v4.39a3.37,3.37,0,0,0,1.19,1.34c1,.63,2.08.8,5.23.8a60.27,60.27,0,0,0,8.42-.46,9.76,9.76,0,0,0-.63,2.47l-2.33.09c-.63,0-3.72.06-4.79.06a23.29,23.29,0,0,1-5.25-.38,5,5,0,0,1-2.93-2,19.79,19.79,0,0,1-2.44,2c-.15.11-.5.38-.69.55l-1-2.39a11.72,11.72,0,0,0,3-2.08V10.39h-1.15a7.32,7.32,0,0,0-1.41.11ZM204.73.59a28.44,28.44,0,0,1,3.63,3.78l-1.74,1.7a23.09,23.09,0,0,0-3.57-3.93Zm6.38,5.16a15.78,15.78,0,0,0-1.89.11V3.63a16.12,16.12,0,0,0,1.91.11H212A10.2,10.2,0,0,0,210.46,1l2-.95A14.69,14.69,0,0,1,214,2.83l-1.83.91h3.38A17,17,0,0,0,217.28.1l2.27.76c-.25.44-.25.44-.73,1.39-.3.54-.53,1-.84,1.49h1.21A11.42,11.42,0,0,0,221,3.63V5.86a19.34,19.34,0,0,0-2-.11h-3a19.83,19.83,0,0,1-.1,2.4h4A11.72,11.72,0,0,0,221.8,8v2.27c-.7-.06-1.35-.11-2.08-.11h-3.4a7,7,0,0,0,1.76,2.08,10.2,10.2,0,0,0,3.86,1.87,6.67,6.67,0,0,0-1.05,2.23,10.41,10.41,0,0,1-4-2.19,8.67,8.67,0,0,1-2-2.35A7,7,0,0,1,213,14.38a11,11,0,0,1-3,1.93,5.71,5.71,0,0,0-1.47-2,9.4,9.4,0,0,0,3.06-1.66,5.84,5.84,0,0,0,1.66-2.46h-2.85a19.09,19.09,0,0,0-2,.11V8a19.09,19.09,0,0,0,2,.11h3.29a18.1,18.1,0,0,0,.11-2.4Z"/><rect class="cls-1" x="1.91" y="31.37" width="231" height="15.07"/><path class="cls-2" d="M128.35,36.08l-1,4.69H130a.62.62,0,0,1,.46.15.4.4,0,0,1,.08.39.58.58,0,0,1-.24.38.86.86,0,0,1-.52.15h-3.15a.7.7,0,0,1-.58-.19A.81.81,0,0,1,126,41l1-5a1.08,1.08,0,0,1,.31-.59.69.69,0,0,1,.51-.2.49.49,0,0,1,.43.19A.72.72,0,0,1,128.35,36.08Z"/><path class="cls-2" d="M137.74,38,137,41.44a4.29,4.29,0,0,1-.34,1,2.48,2.48,0,0,1-.56.71,2.31,2.31,0,0,1-.83.41,3.92,3.92,0,0,1-1.16.14,3.12,3.12,0,0,1-1.07-.17,1.44,1.44,0,0,1-.65-.45.68.68,0,0,1-.15-.57.59.59,0,0,1,.23-.35.54.54,0,0,1,.38-.14.46.46,0,0,1,.42.23,1.58,1.58,0,0,0,.15.24.91.91,0,0,0,.18.21.66.66,0,0,0,.28.12,1.48,1.48,0,0,0,.39,0,1.94,1.94,0,0,0,.75-.13,1,1,0,0,0,.44-.37,1.8,1.8,0,0,0,.22-.49c.05-.18.12-.47.21-.86a2.74,2.74,0,0,1-.76.59,2.09,2.09,0,0,1-.91.2,1.52,1.52,0,0,1-1-.31,1.42,1.42,0,0,1-.51-.86,3.1,3.1,0,0,1,0-1.28,3.29,3.29,0,0,1,.35-1,2.86,2.86,0,0,1,.57-.74,2.4,2.4,0,0,1,.72-.45,2.25,2.25,0,0,1,.82-.15,1.63,1.63,0,0,1,.84.2,1.61,1.61,0,0,1,.57.61l0-.16a.93.93,0,0,1,.26-.49.63.63,0,0,1,.43-.17c.23,0,.37.08.41.23A1.32,1.32,0,0,1,137.74,38Zm-3.8,1.52a1.51,1.51,0,0,0,.09,1.11.84.84,0,0,0,.75.37,1.23,1.23,0,0,0,.6-.16,1.7,1.7,0,0,0,.53-.48,2,2,0,0,0,.33-.79,1.61,1.61,0,0,0-.08-1.14.83.83,0,0,0-.77-.41,1.24,1.24,0,0,0-.9.39A2.16,2.16,0,0,0,133.94,39.47Z"/><path class="cls-2" d="M141.49,37.75l-.73,3.47a1,1,0,0,1-.28.55A.72.72,0,0,1,140,42a.44.44,0,0,1-.39-.19.71.71,0,0,1-.05-.54l.72-3.43a.93.93,0,0,1,.28-.54.67.67,0,0,1,.46-.18.46.46,0,0,1,.4.18A.62.62,0,0,1,141.49,37.75Zm-.33-1.23a.54.54,0,0,1-.4-.16.45.45,0,0,1-.09-.43.73.73,0,0,1,.27-.42.77.77,0,0,1,.46-.17.5.5,0,0,1,.38.15.46.46,0,0,1,.09.44.73.73,0,0,1-.26.43A.77.77,0,0,1,141.16,36.52Z"/><path class="cls-2" d="M147.34,40.38a1.8,1.8,0,0,1-.42.85,2,2,0,0,1-.83.54,3.59,3.59,0,0,1-1.19.18,2.36,2.36,0,0,1-1.06-.2,1.16,1.16,0,0,1-.58-.49.86.86,0,0,1-.1-.6.67.67,0,0,1,.6-.48.34.34,0,0,1,.27.1.78.78,0,0,1,.14.26,1,1,0,0,0,.34.48,1.21,1.21,0,0,0,.67.15,1.12,1.12,0,0,0,.62-.16.58.58,0,0,0,.31-.36.41.41,0,0,0-.14-.47,2.69,2.69,0,0,0-.73-.27,4.56,4.56,0,0,1-.94-.33,1.18,1.18,0,0,1-.53-.44.86.86,0,0,1-.09-.68,1.46,1.46,0,0,1,.36-.68,1.86,1.86,0,0,1,.74-.52,3.16,3.16,0,0,1,1.87-.09,1.53,1.53,0,0,1,.56.26.94.94,0,0,1,.31.36.76.76,0,0,1,0,.39.61.61,0,0,1-.21.34.75.75,0,0,1-.42.13.41.41,0,0,1-.3-.11,1.57,1.57,0,0,1-.23-.32.77.77,0,0,0-.26-.28.9.9,0,0,0-.48-.1,1,1,0,0,0-.57.14.53.53,0,0,0-.29.34.32.32,0,0,0,.1.31,1,1,0,0,0,.38.2c.17.05.4.12.7.19a3.41,3.41,0,0,1,.84.33,1.14,1.14,0,0,1,.45.45A.93.93,0,0,1,147.34,40.38Z"/><path class="cls-2" d="M150.38,37.18h.14l.15-.72a4,4,0,0,1,.11-.46.74.74,0,0,1,.39-.48.68.68,0,0,1,.31-.08.47.47,0,0,1,.37.17.4.4,0,0,1,.1.28,2.59,2.59,0,0,1-.06.47l-.17.82h.44a.47.47,0,0,1,.36.12.36.36,0,0,1,.07.31.48.48,0,0,1-.26.34,1.48,1.48,0,0,1-.57.09h-.23l-.46,2.21a4.07,4.07,0,0,0-.07.43.34.34,0,0,0,.06.25c0,.06.12.09.25.09l.3,0a1.23,1.23,0,0,1,.29,0,.28.28,0,0,1,.23.12.33.33,0,0,1,.06.28.65.65,0,0,1-.41.45,2.43,2.43,0,0,1-.94.15,1.3,1.3,0,0,1-.81-.19.68.68,0,0,1-.28-.52,3.63,3.63,0,0,1,.1-.89l.48-2.31h-.15a.47.47,0,0,1-.37-.12.31.31,0,0,1-.07-.31.46.46,0,0,1,.2-.31A.76.76,0,0,1,150.38,37.18Z"/><path class="cls-2" d="M155.88,37.75l-.73,3.47a1,1,0,0,1-.28.55.72.72,0,0,1-.48.18.44.44,0,0,1-.39-.19.71.71,0,0,1-.05-.54l.72-3.43a.93.93,0,0,1,.28-.54.67.67,0,0,1,.47-.18.46.46,0,0,1,.39.18A.62.62,0,0,1,155.88,37.75Zm-.33-1.23a.54.54,0,0,1-.4-.16.45.45,0,0,1-.09-.43.73.73,0,0,1,.27-.42.77.77,0,0,1,.46-.17.5.5,0,0,1,.38.15.46.46,0,0,1,.09.44.69.69,0,0,1-.26.43A.77.77,0,0,1,155.55,36.52Z"/><path class="cls-2" d="M162.15,40.47a1.35,1.35,0,0,1-.23.47,2.24,2.24,0,0,1-.52.49,2.63,2.63,0,0,1-.77.37,3,3,0,0,1-1,.14,1.87,1.87,0,0,1-1.61-.65,2.09,2.09,0,0,1-.26-1.73,3.52,3.52,0,0,1,.56-1.31,2.84,2.84,0,0,1,1-.88,3.06,3.06,0,0,1,1.36-.31,2.37,2.37,0,0,1,.83.14,1.72,1.72,0,0,1,.58.35,1.33,1.33,0,0,1,.32.46.83.83,0,0,1,0,.46.61.61,0,0,1-.24.36.68.68,0,0,1-.42.15.32.32,0,0,1-.23-.08.83.83,0,0,1-.17-.24,1.36,1.36,0,0,0-.36-.51.86.86,0,0,0-.57-.16,1.29,1.29,0,0,0-.94.41,2.2,2.2,0,0,0-.57,1.14,2.23,2.23,0,0,0,0,.62,1,1,0,0,0,.14.48.69.69,0,0,0,.32.31,1,1,0,0,0,.47.1,1.31,1.31,0,0,0,.65-.17,2,2,0,0,0,.56-.51,1.49,1.49,0,0,1,.3-.31.54.54,0,0,1,.34-.12.37.37,0,0,1,.33.17A.46.46,0,0,1,162.15,40.47Z"/><path class="cls-2" d="M168.37,40.38a1.8,1.8,0,0,1-.42.85,1.88,1.88,0,0,1-.83.54,3.53,3.53,0,0,1-1.18.18,2.41,2.41,0,0,1-1.07-.2,1.2,1.2,0,0,1-.58-.49.91.91,0,0,1-.09-.6.59.59,0,0,1,.21-.33.56.56,0,0,1,.39-.15.37.37,0,0,1,.27.1.78.78,0,0,1,.14.26,1,1,0,0,0,.34.48,1.19,1.19,0,0,0,.66.15,1.18,1.18,0,0,0,.63-.16.58.58,0,0,0,.31-.36.43.43,0,0,0-.15-.47,2.69,2.69,0,0,0-.73-.27,4.79,4.79,0,0,1-.94-.33,1.3,1.3,0,0,1-.53-.44,1,1,0,0,1-.09-.68,1.46,1.46,0,0,1,.36-.68,2,2,0,0,1,.74-.52,2.9,2.9,0,0,1,1.06-.19,2.8,2.8,0,0,1,.81.1,1.51,1.51,0,0,1,.57.26,1,1,0,0,1,.3.36.59.59,0,0,1,0,.39.61.61,0,0,1-.21.34.7.7,0,0,1-.42.13.4.4,0,0,1-.29-.11,1.57,1.57,0,0,1-.23-.32,1,1,0,0,0-.26-.28.9.9,0,0,0-.48-.1,1,1,0,0,0-.57.14.5.5,0,0,0-.29.34.29.29,0,0,0,.09.31,1,1,0,0,0,.39.2c.16.05.4.12.7.19a3.41,3.41,0,0,1,.84.33,1.05,1.05,0,0,1,.44.45A.81.81,0,0,1,168.37,40.38Z"/><path class="cls-2" d="M182.85,39.91a2.26,2.26,0,0,1-.52,1.05,2.71,2.71,0,0,1-1,.73,3.8,3.8,0,0,1-1.43.26,2.68,2.68,0,0,1-1.5-.36,1.48,1.48,0,0,1-.57-.69,1.46,1.46,0,0,1-.1-.84.77.77,0,0,1,.25-.41.73.73,0,0,1,.46-.17.44.44,0,0,1,.32.13.78.78,0,0,1,.16.39,2,2,0,0,0,.16.52.83.83,0,0,0,.33.34A1.29,1.29,0,0,0,180,41a1.8,1.8,0,0,0,1-.27,1.07,1.07,0,0,0,.51-.67.63.63,0,0,0-.09-.52.9.9,0,0,0-.44-.31,7.6,7.6,0,0,0-.78-.22,5.69,5.69,0,0,1-1.09-.38,1.41,1.41,0,0,1-.61-.6,1.36,1.36,0,0,1-.08-.93,1.86,1.86,0,0,1,.49-.94,2.39,2.39,0,0,1,1-.64,3.73,3.73,0,0,1,1.34-.22,2.87,2.87,0,0,1,1,.15,1.51,1.51,0,0,1,.64.39,1.25,1.25,0,0,1,.31.51,1,1,0,0,1,0,.52.77.77,0,0,1-.25.42.65.65,0,0,1-.45.19.41.41,0,0,1-.32-.11A1.41,1.41,0,0,1,182,37a1.2,1.2,0,0,0-.3-.57,1,1,0,0,0-.75-.2,1.6,1.6,0,0,0-.86.22.82.82,0,0,0-.42.53.49.49,0,0,0,0,.34.69.69,0,0,0,.24.24,1.33,1.33,0,0,0,.34.16l.59.16c.34.09.65.18.92.28a2.36,2.36,0,0,1,.67.38,1.1,1.1,0,0,1,.37.55A1.65,1.65,0,0,1,182.85,39.91Z"/><path class="cls-2" d="M189.75,39.51a3.28,3.28,0,0,1-.38,1,3,3,0,0,1-.64.78,3,3,0,0,1-.86.5,3.13,3.13,0,0,1-1,.17,2.43,2.43,0,0,1-.94-.17,1.65,1.65,0,0,1-.65-.51,1.66,1.66,0,0,1-.32-.77,2.8,2.8,0,0,1,0-1,3.28,3.28,0,0,1,.38-1,2.58,2.58,0,0,1,.64-.78,2.71,2.71,0,0,1,.86-.49,2.87,2.87,0,0,1,1-.18,2.38,2.38,0,0,1,1,.18,1.62,1.62,0,0,1,.65.5,1.66,1.66,0,0,1,.32.77A2.8,2.8,0,0,1,189.75,39.51Zm-1.21,0a1.56,1.56,0,0,0-.08-1.14.84.84,0,0,0-.78-.41,1.26,1.26,0,0,0-.66.18,1.53,1.53,0,0,0-.53.54,2.93,2.93,0,0,0-.32.83,2.32,2.32,0,0,0,0,.82.9.9,0,0,0,.3.54.87.87,0,0,0,.59.19,1.31,1.31,0,0,0,.95-.41A2.23,2.23,0,0,0,188.54,39.51Z"/><path class="cls-2" d="M191.63,41.22l1.09-5.2a1.06,1.06,0,0,1,.27-.55.7.7,0,0,1,.48-.18.46.46,0,0,1,.4.18.74.74,0,0,1,0,.55l-1.09,5.2a1,1,0,0,1-.28.55.72.72,0,0,1-.48.18.42.42,0,0,1-.39-.19A.71.71,0,0,1,191.63,41.22Z"/><path class="cls-2" d="M198.47,41.27l0-.15a3.83,3.83,0,0,1-.55.46,2.12,2.12,0,0,1-.57.27,2.29,2.29,0,0,1-.66.09,1.49,1.49,0,0,1-.75-.18,1,1,0,0,1-.43-.49,2.14,2.14,0,0,1,0-1.1l.5-2.38a1,1,0,0,1,.27-.54.69.69,0,0,1,.47-.18.45.45,0,0,1,.4.18.66.66,0,0,1,.06.54l-.4,1.92a2.77,2.77,0,0,0-.08.7.65.65,0,0,0,.16.44.59.59,0,0,0,.46.17,1.14,1.14,0,0,0,.61-.19,1.38,1.38,0,0,0,.49-.47,4.44,4.44,0,0,0,.33-1.11l.31-1.46a.93.93,0,0,1,.28-.54.67.67,0,0,1,.47-.18.46.46,0,0,1,.4.18.67.67,0,0,1,0,.54l-.72,3.48a.93.93,0,0,1-.27.51.64.64,0,0,1-.44.17.4.4,0,0,1-.36-.18A.58.58,0,0,1,198.47,41.27Z"/><path class="cls-2" d="M203,37.18h.13l.15-.72c0-.19.08-.35.11-.46a.84.84,0,0,1,.15-.28.72.72,0,0,1,.55-.28.5.5,0,0,1,.38.17.4.4,0,0,1,.1.28,2.8,2.8,0,0,1-.07.47l-.17.82h.44a.46.46,0,0,1,.36.12.31.31,0,0,1,.07.31A.46.46,0,0,1,205,38a1.48,1.48,0,0,1-.57.09h-.22l-.46,2.21a2.47,2.47,0,0,0-.07.43.39.39,0,0,0,.05.25.3.3,0,0,0,.26.09l.29,0a1.37,1.37,0,0,1,.29,0,.29.29,0,0,1,.24.12.33.33,0,0,1,.06.28.67.67,0,0,1-.41.45,2.49,2.49,0,0,1-.95.15,1.34,1.34,0,0,1-.81-.19.64.64,0,0,1-.27-.52,3.63,3.63,0,0,1,.1-.89L203,38h-.16a.5.5,0,0,1-.37-.12.34.34,0,0,1-.07-.31.51.51,0,0,1,.21-.31A.74.74,0,0,1,203,37.18Z"/><path class="cls-2" d="M208.5,37.75l-.72,3.47a1,1,0,0,1-.29.55A.69.69,0,0,1,207,42a.42.42,0,0,1-.39-.19.71.71,0,0,1,0-.54l.72-3.43a.93.93,0,0,1,.28-.54.67.67,0,0,1,.46-.18.46.46,0,0,1,.4.18A.59.59,0,0,1,208.5,37.75Zm-.33-1.23a.5.5,0,0,1-.39-.16.45.45,0,0,1-.09-.43.65.65,0,0,1,.27-.42.75.75,0,0,1,.46-.17.52.52,0,0,1,.38.15.46.46,0,0,1,.09.44.7.7,0,0,1-.27.43A.77.77,0,0,1,208.17,36.52Z"/><path class="cls-2" d="M215.16,39.51a3.27,3.27,0,0,1-.37,1,3.07,3.07,0,0,1-.65.78,2.73,2.73,0,0,1-.86.5,3.12,3.12,0,0,1-1,.17,2.48,2.48,0,0,1-.95-.17,1.61,1.61,0,0,1-.64-.51,1.68,1.68,0,0,1-.33-.77,2.82,2.82,0,0,1,0-1,3.27,3.27,0,0,1,.37-1,2.91,2.91,0,0,1,.64-.78,2.82,2.82,0,0,1,.86-.49,2.88,2.88,0,0,1,1-.18,2.33,2.33,0,0,1,.95.18,1.66,1.66,0,0,1,.66.5,1.78,1.78,0,0,1,.32.77A2.82,2.82,0,0,1,215.16,39.51Zm-1.2,0a1.67,1.67,0,0,0-.08-1.14.85.85,0,0,0-.79-.41,1.25,1.25,0,0,0-.65.18,1.53,1.53,0,0,0-.53.54,2.66,2.66,0,0,0-.32.83,2.32,2.32,0,0,0,0,.82.9.9,0,0,0,.3.54.85.85,0,0,0,.58.19,1.33,1.33,0,0,0,1-.41A2.23,2.23,0,0,0,214,39.51Z"/><path class="cls-2" d="M218.87,37.74l0,.14a2.77,2.77,0,0,1,.82-.61,2.08,2.08,0,0,1,.9-.2,1.5,1.5,0,0,1,.81.21,1,1,0,0,1,.43.58,1.27,1.27,0,0,1,.06.48,5.87,5.87,0,0,1-.11.65l-.46,2.23a1.06,1.06,0,0,1-.28.55.69.69,0,0,1-.47.18.45.45,0,0,1-.4-.19.71.71,0,0,1,0-.54l.42-2a2,2,0,0,0,0-.91c-.07-.21-.27-.31-.6-.31a1.12,1.12,0,0,0-.62.19,1.5,1.5,0,0,0-.5.53,4.5,4.5,0,0,0-.29,1l-.32,1.5a1,1,0,0,1-.28.55.72.72,0,0,1-.48.18.44.44,0,0,1-.39-.19.71.71,0,0,1-.05-.54l.73-3.47a1,1,0,0,1,.25-.51.66.66,0,0,1,.45-.17.5.5,0,0,1,.27.08.47.47,0,0,1,.16.22A.76.76,0,0,1,218.87,37.74Z"/><path class="cls-3" d="M139.16,28.6c-.28,0-.65,0-.93,0s-.66,0-.93,0h-.23l-.17-.17a.18.18,0,0,1,.17-.17c.6,0,.6,0,.6-.36V26h-2.25V27.9c0,.34,0,.34.61.36l.16.17a.16.16,0,0,1-.17.17h-.23c-.27,0-.64,0-.92,0s-.66,0-.93,0h-.23l-.17-.17a.17.17,0,0,1,.17-.17c.6,0,.6,0,.6-.36v-4c0-.34,0-.34-.6-.36l-.17-.17a.16.16,0,0,1,.17-.17h.23l.93,0,.92,0H136l.17.17a.16.16,0,0,1-.17.17c-.6,0-.6,0-.6.36v1.74h2.25V23.85c0-.34,0-.34-.6-.36l-.17-.17a.17.17,0,0,1,.17-.17h.23l.93,0,.92,0h.23l.17.17a.16.16,0,0,1-.17.17c-.6,0-.6,0-.6.36v4c0,.34,0,.34.61.36l.16.17a.16.16,0,0,1-.17.17Z"/><path class="cls-3" d="M138.68,27.9c0,.42,0,.43.7.46a.07.07,0,1,1,0,.14h-.22c-.27,0-.65,0-.93,0s-.66,0-.93,0h-.23a.06.06,0,0,1-.07-.07.07.07,0,0,1,.07-.07c.69,0,.7,0,.7-.46v-2h-2.45v2c0,.42,0,.43.7.46a.07.07,0,0,1,.07.07.06.06,0,0,1-.07.07h-.22c-.28,0-.65,0-.93,0s-.66,0-.93,0h-.23a.06.06,0,0,1-.07-.07.07.07,0,0,1,.07-.07c.69,0,.7,0,.7-.46v-4c0-.42,0-.43-.7-.46a.07.07,0,0,1-.07-.07.06.06,0,0,1,.07-.07h.23l.93,0,.93,0H136a.06.06,0,0,1,.07.07.07.07,0,0,1-.07.07c-.68,0-.7,0-.7.46v1.84h2.45V23.85c0-.42,0-.43-.7-.46a.07.07,0,0,1-.07-.07.06.06,0,0,1,.07-.07h.23l.93,0,.93,0h.22a.07.07,0,1,1,0,.14c-.68,0-.7,0-.7.46Z"/><path class="cls-3" d="M142.86,28.6c-.06,0-.25,0-.45,0h-1c-.2,0-.39,0-.49,0l-.17-.17a.16.16,0,0,1,.17-.17c.41,0,.41,0,.41-.43V25.62c0-.48,0-.48-.17-.48h-.12a.17.17,0,0,1-.17-.17.17.17,0,0,1,.17-.18,6,6,0,0,0,1.16-.08h0c.16,0,.22.07.22.17s0,0,0,.16a5,5,0,0,0,0,.74v2c0,.41,0,.41.41.43h0a.18.18,0,0,1,.18.17A.18.18,0,0,1,142.86,28.6ZM142,24.05a.62.62,0,1,1,.61-.62A.62.62,0,0,1,142,24.05Z"/><path class="cls-3" d="M141.08,25A.07.07,0,0,1,141,25a.06.06,0,0,1,.07-.07,6.13,6.13,0,0,0,1.18-.09h.08a.07.07,0,0,1,.07.08,1.36,1.36,0,0,1,0,.15,7.17,7.17,0,0,0,0,.75v2c0,.48,0,.5.5.53a.08.08,0,0,1,.09.07s0,.07-.09.07-.24,0-.45,0h-1c-.2,0-.39,0-.49,0a.06.06,0,0,1-.07-.07.07.07,0,0,1,.07-.07c.49,0,.51,0,.51-.53V25.62c0-.51,0-.58-.27-.58Zm1.38-1.61a.52.52,0,1,1-.51-.52A.52.52,0,0,1,142.46,23.43Z"/><path class="cls-3" d="M146.58,28.6c-.2,0-.41,0-.62,0H145a4.14,4.14,0,0,1-.45,0,.17.17,0,0,1-.18-.17.18.18,0,0,1,.18-.17c.35,0,.35,0,.35-.4V25.55c0-.41,0-.41-.26-.41h-.12a.18.18,0,0,1-.18-.17.18.18,0,0,1,.18-.18,4,4,0,0,0,1.17-.11l.11,0a.17.17,0,0,1,.17.18c0,.05,0,.19,0,.26a.5.5,0,0,0,0,.12,1.08,1.08,0,0,1,.94-.59c.52,0,.75.31.75.62a.6.6,0,0,1-.61.64.5.5,0,0,1-.53-.5.55.55,0,0,1,.13-.37c-.33.14-.6.57-.6,1.33v1.51c0,.38,0,.38.56.4h0a.16.16,0,0,1,.17.17A.17.17,0,0,1,146.58,28.6Z"/><path class="cls-3" d="M145.85,25.78c.13-.63.52-1.05,1-1.05s.65.24.65.52a.5.5,0,0,1-.51.54.39.39,0,0,1-.43-.4.42.42,0,0,1,.29-.42c.05,0,.07,0,.07-.06s0,0-.11,0c-.47,0-.92.49-.92,1.48v1.51c0,.45,0,.47.65.5a.07.07,0,0,1,.08.07s0,.07-.08.07-.4,0-.61,0H145a4.14,4.14,0,0,1-.45,0,.07.07,0,0,1-.08-.07.08.08,0,0,1,.08-.07c.42,0,.45,0,.45-.5V25.55c0-.49,0-.51-.36-.51h-.12a.08.08,0,0,1-.08-.07.07.07,0,0,1,.08-.07,4.44,4.44,0,0,0,1.21-.12l.07,0a.07.07,0,0,1,.07.08,1.93,1.93,0,0,1,0,.24c0,.17-.06.43-.08.7Z"/><path class="cls-3" d="M150.8,28.67a2,2,0,0,1-2-2,2,2,0,1,1,3.92,0A2,2,0,0,1,150.8,28.67Zm0-3.67a.69.69,0,0,0-.61.46,3.25,3.25,0,0,0-.19,1.21,3.16,3.16,0,0,0,.19,1.21.71.71,0,0,0,.61.45.7.7,0,0,0,.61-.46,3.08,3.08,0,0,0,.19-1.2,3.34,3.34,0,0,0-.19-1.22A.69.69,0,0,0,150.8,25Z"/><path class="cls-3" d="M152.66,26.67a1.86,1.86,0,1,1-1.86-1.91A1.92,1.92,0,0,1,152.66,26.67Zm-1,0a3.54,3.54,0,0,0-.2-1.26.74.74,0,0,0-1.4,0,3.33,3.33,0,0,0-.2,1.26,3.21,3.21,0,0,0,.2,1.24.73.73,0,0,0,1.4,0A3.41,3.41,0,0,0,151.7,26.67Z"/><path class="cls-3" d="M155.92,30.66c-1.15,0-1.86-.4-1.86-1a.88.88,0,0,1,.71-.85.82.82,0,0,1-.44-.75,1,1,0,0,1,.61-.93,1.23,1.23,0,0,1-.45-.94A1.47,1.47,0,0,1,156,24.66a1.32,1.32,0,0,1,.28,0,1.19,1.19,0,0,1,1.05-1,.6.6,0,0,1,.67.57.53.53,0,0,1-.53.57.45.45,0,0,1-.48-.46.48.48,0,0,1,.1-.29,1,1,0,0,0-.5.67,1.33,1.33,0,0,1,.91,1.21A1.47,1.47,0,0,1,156,27.48a1.7,1.7,0,0,1-.79-.21.62.62,0,0,0-.12.34c0,.22.23.34.7.34h.58c1.3,0,1.58.62,1.58,1.14A1.82,1.82,0,0,1,155.92,30.66Zm-.43-1.74a.37.37,0,0,0-.28.09.68.68,0,0,0-.22.56c0,.62.55.75,1,.75.61,0,1.07-.35,1.07-.82s-.33-.58-1-.58ZM156,25a.28.28,0,0,0-.3.17,1.82,1.82,0,0,0-.18.92,1.72,1.72,0,0,0,.17.88.39.39,0,0,0,.33.16.34.34,0,0,0,.29-.13,1.71,1.71,0,0,0,.19-1,1.68,1.68,0,0,0-.19-.87A.34.34,0,0,0,156,25Z"/><path class="cls-3" d="M156.36,28.05c1,0,1.47.35,1.47,1,0,.88-.9,1.47-1.91,1.47s-1.76-.36-1.76-.94.35-.75,1-.82a.78.78,0,0,1-.72-.78,1,1,0,0,1,.7-.91,1.15,1.15,0,0,1-.54-1A1.38,1.38,0,0,1,156,24.76a1.45,1.45,0,0,1,.35,0,1.11,1.11,0,0,1,1-1c.37,0,.57.22.57.47a.43.43,0,0,1-.43.47.35.35,0,0,1-.38-.36.37.37,0,0,1,.26-.36s.05,0,.05-.05,0,0-.09,0c-.36,0-.72.34-.84.88a1.26,1.26,0,0,1,.93,1.15A1.37,1.37,0,0,1,156,27.38a1.55,1.55,0,0,1-.74-.2.46.46,0,0,0-.27.43c0,.23.17.44.8.44Zm-.87.77a.48.48,0,0,0-.34.11.81.81,0,0,0-.26.64c0,.5.34.85,1.11.85s1.17-.43,1.17-.92-.43-.68-1.09-.68Zm-.06-2.73a1.7,1.7,0,0,0,.19.93.47.47,0,0,0,.41.21.45.45,0,0,0,.37-.17,2.39,2.39,0,0,0,0-1.94.47.47,0,0,0-.4-.22.39.39,0,0,0-.39.21A2,2,0,0,0,155.43,26.09Z"/><path class="cls-3" d="M160.3,28.67c-.67,0-1.1-.37-1.1-.93s.64-1.09,2.12-1.25V25.9c0-.79-.36-.88-.64-.88s-.56.24-.56.32a.44.44,0,0,1,.41.47.54.54,0,0,1-.58.51.53.53,0,0,1-.52-.56c0-.59.69-1.1,1.48-1.1,1,0,1.48.55,1.48,1.6V27.8c0,.29.07.29.15.29s.18-.06.3-.5l.17-.14a.15.15,0,0,1,.15.16c-.14.7-.47,1-1,1a.67.67,0,0,1-.71-.5A1.16,1.16,0,0,1,160.3,28.67Zm1-1.85c-1,.11-1.08.51-1.08.86a.43.43,0,0,0,.44.47c.38,0,.64-.32.64-.8Z"/><path class="cls-3" d="M162.29,27.8c0,.35.11.39.25.39s.28-.14.4-.58a.07.07,0,0,1,.07-.06.06.06,0,0,1,.05.06v.05c-.12.56-.39.84-.93.84a.59.59,0,0,1-.64-.67h-.05a1.09,1.09,0,0,1-1.14.74c-.53,0-1-.26-1-.83s.63-1,2.12-1.16V25.9c0-.77-.34-1-.74-1s-.66.27-.66.42,0,.07.1.09a.37.37,0,0,1,.31.38.44.44,0,0,1-.48.41.43.43,0,0,1-.42-.46c0-.54.67-1,1.38-1,.87,0,1.38.47,1.38,1.5Zm-.87-1.09c-.88.08-1.28.38-1.28,1a.53.53,0,0,0,.54.57c.42,0,.74-.34.74-.9Z"/><path class="cls-3" d="M167.89,28.6c-.73,0-.85-.07-1.27-.75l-.51-.86c-.06-.09-.1-.14-.17-.16v1c0,.4,0,.4.42.4a.17.17,0,1,1,0,.34c-.06,0-.27,0-.48,0h-.48c-.1,0-.38,0-.73,0h-.2a.17.17,0,0,1-.18-.17.18.18,0,0,1,.18-.17c.42,0,.42,0,.42-.4V23.68c0-.56,0-.56-.25-.56s-.22-.07-.22-.17l.17-.17a2.51,2.51,0,0,0,1.1-.25l.11,0a.18.18,0,0,1,.18.18s0,.07,0,.31,0,.41,0,.78v2.66h0a.54.54,0,0,0,.47-.24l.35-.38c.1-.11.34-.39.34-.52s0-.12-.51-.15l-.16-.17a.17.17,0,0,1,.17-.18h.16c.36,0,.72,0,.88,0l.52,0,.22,0,.17.18a.16.16,0,0,1-.16.16,1.26,1.26,0,0,0-.82.4l-.67.66a.26.26,0,0,0-.07.14s0,.07.08.16l.72,1c.44.63.62.75.77.75l.18.17a.18.18,0,0,1-.19.17Z"/><path class="cls-3" d="M167.59,27.56c.46.67.66.8.85.8s.08,0,.08.07,0,.07-.09.07h-.54c-.68,0-.77,0-1.18-.7l-.52-.86a.35.35,0,0,0-.35-.22v1.14c0,.48,0,.5.52.5a.07.07,0,0,1,.08.07s0,.07-.08.07-.27,0-.47,0h-.49c-.1,0-.38,0-.73,0h-.2a.07.07,0,0,1-.08-.07.08.08,0,0,1,.08-.07c.49,0,.52,0,.52-.5V23.68c0-.64,0-.66-.35-.66h0a.07.07,0,0,1-.07-.07.06.06,0,0,1,.07-.07,2.62,2.62,0,0,0,1.14-.26.11.11,0,0,1,.07,0,.07.07,0,0,1,.08.08s0,.07,0,.3,0,.42,0,.79v2.76H166a.66.66,0,0,0,.55-.27l.35-.38c.23-.27.36-.46.36-.59s-.21-.23-.6-.25a.08.08,0,0,1-.07-.07.06.06,0,0,1,.07-.07h.15c.37,0,.73,0,.89,0l.53,0h.21a.06.06,0,0,1,.07.07.08.08,0,0,1-.07.07,1.31,1.31,0,0,0-.88.42l-.67.66a.32.32,0,0,0-.1.21.37.37,0,0,0,.09.22Z"/><path class="cls-3" d="M171.85,28.6c-.07,0-.25,0-.46,0h-.95a5,5,0,0,1-.5,0l-.17-.17a.16.16,0,0,1,.17-.17c.42,0,.42,0,.42-.43V25.62c0-.48,0-.48-.17-.48h-.12a.18.18,0,0,1-.18-.17.18.18,0,0,1,.18-.18,6,6,0,0,0,1.16-.08h0c.17,0,.23.07.23.17a.82.82,0,0,1,0,.16,7.1,7.1,0,0,0,0,.74v2c0,.41,0,.41.41.43h0a.17.17,0,1,1,0,.34Zm-.91-4.55a.62.62,0,1,1,.61-.62A.63.63,0,0,1,170.94,24.05Z"/><path class="cls-3" d="M170.07,25A.08.08,0,0,1,170,25a.07.07,0,0,1,.08-.07,6.29,6.29,0,0,0,1.18-.09h.07a.08.08,0,0,1,.08.08,1.36,1.36,0,0,1,0,.15,4.62,4.62,0,0,0,0,.75v2c0,.48,0,.5.51.53a.08.08,0,0,1,.08.07.07.07,0,0,1-.08.07c-.07,0-.25,0-.45,0h-1a4.72,4.72,0,0,1-.49,0,.06.06,0,0,1-.07-.07.07.07,0,0,1,.07-.07c.49,0,.52,0,.52-.53V25.62c0-.51,0-.58-.27-.58Zm1.38-1.61a.52.52,0,1,1-.51-.52A.52.52,0,0,1,171.45,23.43Z"/><path class="cls-3" d="M181.86,28.6c-.27,0-.65,0-.93,0s-.65,0-.92,0h-.23l-.17-.17a.17.17,0,0,1,.17-.17c.6,0,.6,0,.6-.36V23.71a.92.92,0,0,0,0-.18h-.17c-.74,0-1.07.33-1.21,1.1l-.16.16s-.14,0-.15-.18,0-.31,0-.48,0-.58,0-.72.08-.25.26-.25h.21c.29,0,.7,0,1,0h1.59c.29,0,.71,0,1,0h.19c.19,0,.25.06.26.25s0,.43,0,.72,0,.34,0,.48-.12.18-.16.18l-.16-.16c-.13-.77-.47-1.1-1.12-1.1a.63.63,0,0,0-.25,0,.76.76,0,0,0,0,.17V27.9c0,.34,0,.34.6.36l.17.17a.16.16,0,0,1-.17.17Z"/><path class="cls-3" d="M181.73,23.28c.29,0,.72,0,1,0h.18c.14,0,.16,0,.16.15s0,.43,0,.72,0,.33,0,.47,0,.09-.06.09-.05,0-.06-.07c-.12-.73-.45-1.19-1.22-1.19h-.08c-.27,0-.28,0-.28.29V27.9c0,.42,0,.43.7.46a.07.07,0,0,1,.07.07.06.06,0,0,1-.07.07h-.22c-.28,0-.66,0-.94,0s-.65,0-.93,0h-.22a.06.06,0,0,1-.07-.07.07.07,0,0,1,.07-.07c.68,0,.7,0,.7-.46V23.71c0-.28,0-.29-.28-.29h-.08c-.78,0-1.1.46-1.22,1.19,0,.05,0,.07-.07.07s-.05,0-.05-.09,0-.3,0-.47,0-.58,0-.72,0-.15.16-.15h.2c.29,0,.71,0,1,0Z"/><path class="cls-3" d="M186.18,28.6c-.2,0-.41,0-.62,0h-.92a4.14,4.14,0,0,1-.45,0,.17.17,0,0,1-.18-.17.18.18,0,0,1,.18-.17c.35,0,.35,0,.35-.4V25.55c0-.41,0-.41-.26-.41h-.12A.18.18,0,0,1,184,25a.18.18,0,0,1,.18-.18,4,4,0,0,0,1.17-.11l.1,0a.17.17,0,0,1,.18.18c0,.05,0,.19,0,.26a.5.5,0,0,0,0,.12,1.08,1.08,0,0,1,.94-.59c.52,0,.75.31.75.62a.6.6,0,0,1-.61.64.5.5,0,0,1-.53-.5.55.55,0,0,1,.13-.37c-.33.14-.6.57-.6,1.33v1.51c0,.38,0,.38.56.4h0a.16.16,0,0,1,.17.17A.17.17,0,0,1,186.18,28.6Z"/><path class="cls-3" d="M185.45,25.78c.13-.63.52-1.05,1-1.05s.65.24.65.52a.5.5,0,0,1-.51.54.39.39,0,0,1-.43-.4.42.42,0,0,1,.29-.42s.07,0,.07-.06,0,0-.11,0c-.48,0-.92.49-.92,1.48v1.51c0,.45,0,.47.65.5a.07.07,0,0,1,.08.07s0,.07-.08.07-.4,0-.61,0h-.93a4.23,4.23,0,0,1-.45,0,.07.07,0,0,1-.08-.07.08.08,0,0,1,.08-.07c.42,0,.45,0,.45-.5V25.55c0-.49,0-.51-.36-.51h-.12a.08.08,0,0,1-.08-.07.07.07,0,0,1,.08-.07,4.31,4.31,0,0,0,1.2-.12l.07,0a.07.07,0,0,1,.08.08,1.93,1.93,0,0,1,0,.24,5.25,5.25,0,0,0-.08.7Z"/><path class="cls-3" d="M189.49,28.67c-.66,0-1.09-.37-1.09-.93s.63-1.09,2.12-1.25V25.9c0-.79-.37-.88-.64-.88s-.56.24-.56.32a.45.45,0,0,1,.41.47.54.54,0,0,1-.58.51.53.53,0,0,1-.53-.56c0-.59.7-1.1,1.48-1.1,1,0,1.49.55,1.49,1.6V27.8c0,.29.07.29.15.29s.18-.06.3-.5l.17-.14a.16.16,0,0,1,.15.16c-.14.7-.47,1-1,1a.67.67,0,0,1-.7-.5A1.18,1.18,0,0,1,189.49,28.67Zm1-1.85c-1,.11-1.09.51-1.09.86a.44.44,0,0,0,.45.47c.38,0,.64-.32.64-.8Z"/><path class="cls-3" d="M191.49,27.8c0,.35.11.39.25.39s.28-.14.39-.58c0,0,0-.06.08-.06a.06.06,0,0,1,0,.06v.05c-.12.56-.39.84-.93.84a.59.59,0,0,1-.63-.67h-.05a1.1,1.1,0,0,1-1.15.74c-.53,0-1-.26-1-.83s.62-1,2.12-1.16V25.9c0-.77-.35-1-.74-1s-.66.27-.66.42,0,.07.09.09a.37.37,0,0,1,.32.38.44.44,0,0,1-.48.41.43.43,0,0,1-.43-.46c0-.54.68-1,1.38-1,.87,0,1.39.47,1.39,1.5Zm-.87-1.09c-.89.08-1.29.38-1.29,1a.54.54,0,0,0,.55.57c.41,0,.74-.34.74-.9Z"/><path class="cls-3" d="M198,28.6a4.3,4.3,0,0,1-.46,0h-.89a4.14,4.14,0,0,1-.45,0,.17.17,0,0,1-.18-.17.18.18,0,0,1,.18-.17c.35,0,.35,0,.35-.4V26.05c0-.85-.35-1-.66-1s-.75.44-.75,1v1.73c0,.38,0,.38.43.4h0a.17.17,0,0,1,.17.17.17.17,0,0,1-.18.17c-.06,0-.27,0-.48,0h-.92a4.14,4.14,0,0,1-.45,0,.17.17,0,0,1-.18-.17.18.18,0,0,1,.18-.17c.35,0,.35,0,.35-.4V25.62c0-.48,0-.48-.17-.48h-.12a.18.18,0,0,1-.18-.17.18.18,0,0,1,.18-.18,3,3,0,0,0,1.08-.11l.1,0a.18.18,0,0,1,.18.18,1.47,1.47,0,0,1-.05.26s0,.07,0,.1a1.36,1.36,0,0,1,1.21-.54A1.25,1.25,0,0,1,197.6,26v1.84c0,.38,0,.38.36.4a.18.18,0,0,1,.18.17A.17.17,0,0,1,198,28.6Z"/><path class="cls-3" d="M197.5,27.86c0,.47,0,.47.46.5a.08.08,0,0,1,.08.07.07.07,0,0,1-.08.07,4.4,4.4,0,0,1-.46,0h-.9a3.88,3.88,0,0,1-.44,0,.07.07,0,0,1-.08-.07.08.08,0,0,1,.08-.07c.42,0,.45,0,.45-.5V26.05c0-.73-.26-1.06-.76-1.06s-.85.46-.85,1.14v1.73c0,.47,0,.47.52.5a.07.07,0,0,1,.08.07s0,.07-.08.07-.26,0-.47,0h-.94a4,4,0,0,1-.44,0,.07.07,0,0,1-.08-.07.08.08,0,0,1,.08-.07c.42,0,.45,0,.45-.5V25.62c0-.51,0-.58-.27-.58h-.12a.08.08,0,0,1-.08-.07.07.07,0,0,1,.08-.07,3.38,3.38,0,0,0,1.12-.12l.06,0a.08.08,0,0,1,.08.08,1.93,1.93,0,0,1,0,.24,5,5,0,0,0-.09.7h0a1.2,1.2,0,0,1,1.33-1A1.15,1.15,0,0,1,197.5,26Z"/><path class="cls-3" d="M201,28.67a2.1,2.1,0,0,1-1.07-.26h0s-.05.08-.06.11a.19.19,0,0,1-.17.15l-.17-.17s0-.06,0-.15a7.9,7.9,0,0,0,.09-1.23l.17-.17a.16.16,0,0,1,.17.17c.07.81.41,1.21,1.05,1.21a.52.52,0,0,0,.57-.54c0-.35-.29-.47-.76-.64s-1.16-.41-1.16-1.25a1.28,1.28,0,0,1,1.42-1.24,1.49,1.49,0,0,1,.55.11.75.75,0,0,0,.24.06l.18-.14.15.15,0,.21a6,6,0,0,0,0,.79A.17.17,0,0,1,202,26l-.17-.16c0-.25-.14-.86-.78-.86a.53.53,0,0,0-.54.54c0,.39.32.53.84.71s1.14.4,1.14,1.15A1.34,1.34,0,0,1,201,28.67Z"/><path class="cls-3" d="M202.12,25a6.07,6.07,0,0,0,0,.8c0,.06,0,.08-.07.08a.07.07,0,0,1-.07-.06c0-.49-.29-1-.88-1a.63.63,0,0,0-.64.64c0,.49.44.64.91.81s1.07.37,1.07,1A1.25,1.25,0,0,1,201,28.57a1.91,1.91,0,0,1-1-.25l-.1,0c-.06,0-.08.05-.12.21a.08.08,0,0,1-.07.07.08.08,0,0,1-.07-.07s0-.05,0-.14a6.72,6.72,0,0,0,.1-1.24.07.07,0,0,1,.07-.07.06.06,0,0,1,.07.07c.09,1.07.63,1.31,1.15,1.31a.62.62,0,0,0,.67-.64c0-.44-.39-.58-.82-.73s-1.1-.39-1.1-1.16a1.19,1.19,0,0,1,1.32-1.14,1.4,1.4,0,0,1,.51.1.94.94,0,0,0,.28.07c.06,0,.1-.05.14-.11s0,0,0,0a0,0,0,0,1,0,.05Z"/><path class="cls-3" d="M206.16,30.6l-.61,0c-.23,0-.53,0-.63,0h0a4.2,4.2,0,0,0-.47,0l-.42,0a.18.18,0,0,1-.18-.17.17.17,0,0,1,.18-.17c.35,0,.35,0,.35-.44V25.57c0-.43,0-.43-.31-.43H204a.18.18,0,0,1-.18-.17.18.18,0,0,1,.18-.18,5.56,5.56,0,0,0,1.14-.1l.21,0a.17.17,0,0,1,.18.18,1.3,1.3,0,0,1,0,.24c0,.1,0,.18,0,.26a1.17,1.17,0,0,1,1.1-.68,1.77,1.77,0,0,1,1.77,1.87,2,2,0,0,1-1.9,2.14,1.15,1.15,0,0,1-.94-.45c0,.14,0,.29,0,.45v.78c0,.79,0,.79.7.81a.17.17,0,1,1,0,.34Zm.17-5.54c-.43,0-.87.51-.87,1.64v.21c0,.65.16,1.42.88,1.42s.79-.95.79-1.75S206.92,25.06,206.33,25.06Z"/><path class="cls-3" d="M205.33,25.78a1.23,1.23,0,0,1,1.19-1,1.67,1.67,0,0,1,1.67,1.77,1.91,1.91,0,0,1-1.8,2,1.06,1.06,0,0,1-1.07-.86h0a5,5,0,0,1,.08,1v.78c0,.87.07.89.8.91.06,0,.08,0,.08.07a.07.07,0,0,1-.08.07l-.6,0c-.24,0-.54,0-.64,0a4.2,4.2,0,0,0-.47,0l-.42,0a.08.08,0,0,1-.08-.07.07.07,0,0,1,.08-.07c.42,0,.45-.05.45-.54V25.57c0-.46,0-.53-.41-.53H204a.08.08,0,0,1-.08-.07.07.07,0,0,1,.08-.07,5.5,5.5,0,0,0,1.16-.11l.19,0a.07.07,0,0,1,.08.08,1.08,1.08,0,0,1,0,.22,3.5,3.5,0,0,0-.06.72Zm0,1.13c0,1.2.49,1.52,1,1.52s.89-.63.89-1.85c0-.84-.26-1.62-.9-1.62s-1,.54-1,1.74Z"/><path class="cls-3" d="M211.79,28.67a2,2,0,0,1-2-2,2,2,0,1,1,3.92,0A2,2,0,0,1,211.79,28.67Zm0-3.67a.69.69,0,0,0-.61.46,3.25,3.25,0,0,0-.19,1.21,3.32,3.32,0,0,0,.19,1.21.64.64,0,0,0,1.22,0,3.08,3.08,0,0,0,.19-1.2,3.18,3.18,0,0,0-.19-1.22A.71.71,0,0,0,211.79,25Z"/><path class="cls-3" d="M213.65,26.67a1.86,1.86,0,1,1-1.86-1.91A1.91,1.91,0,0,1,213.65,26.67Zm-1,0a3.33,3.33,0,0,0-.2-1.26.74.74,0,0,0-1.4,0,3.33,3.33,0,0,0-.2,1.26,3.21,3.21,0,0,0,.2,1.24.73.73,0,0,0,1.4,0A3.21,3.21,0,0,0,212.69,26.67Z"/><path class="cls-3" d="M217.33,28.6c-.21,0-.41,0-.63,0h-.92a4.14,4.14,0,0,1-.45,0,.17.17,0,0,1-.18-.17.18.18,0,0,1,.18-.17c.36,0,.36,0,.36-.4V25.55c0-.41,0-.41-.27-.41h-.12a.17.17,0,0,1-.17-.17.17.17,0,0,1,.17-.18,4.09,4.09,0,0,0,1.18-.11l.1,0a.17.17,0,0,1,.17.18c0,.05,0,.2,0,.26s0,.08,0,.12a1.08,1.08,0,0,1,.94-.59c.52,0,.75.31.75.62a.6.6,0,0,1-.61.64.5.5,0,0,1-.53-.5.55.55,0,0,1,.13-.37c-.33.14-.6.57-.6,1.33v1.51c0,.38,0,.38.56.4h0a.17.17,0,0,1,0,.34Z"/><path class="cls-3" d="M216.59,25.78c.13-.63.52-1.05,1-1.05s.65.24.65.52a.5.5,0,0,1-.51.54.39.39,0,0,1-.43-.4.42.42,0,0,1,.29-.42c.05,0,.07,0,.07-.06s0,0-.11,0c-.47,0-.92.49-.92,1.48v1.51c0,.45,0,.47.66.5a.07.07,0,0,1,.07.07.06.06,0,0,1-.07.07c-.21,0-.41,0-.62,0h-.93a4.14,4.14,0,0,1-.45,0,.07.07,0,0,1-.08-.07.08.08,0,0,1,.08-.07c.42,0,.46,0,.46-.5V25.55c0-.49,0-.51-.37-.51h-.12a.07.07,0,0,1-.07-.07.06.06,0,0,1,.07-.07,4.39,4.39,0,0,0,1.21-.12l.07,0a.07.07,0,0,1,.07.08,1.93,1.93,0,0,1,0,.24c0,.17-.06.43-.08.7Z"/><path class="cls-3" d="M221.24,28.67a1.08,1.08,0,0,1-1.19-1.15v-2c0-.38-.06-.38-.22-.38h-.26L219.4,25a.18.18,0,0,1,.17-.18h.11c.21,0,.9-.07,1.1-1.08l.17-.15a.16.16,0,0,1,.17.17v1.06H222a.17.17,0,0,1,.18.18.17.17,0,0,1-.18.17h-.89v2.39c0,.59.19.64.4.64s.41-.19.51-.58l.16-.12a.17.17,0,0,1,.17.17A1.19,1.19,0,0,1,221.24,28.67Z"/><path class="cls-3" d="M221,27.53c0,.57.18.74.5.74s.48-.19.61-.65c0,0,0-.05.06-.05a.07.07,0,0,1,.07.07,1.08,1.08,0,0,1-1,.93,1,1,0,0,1-1.09-1.05v-2c0-.39-.06-.48-.32-.48h-.26a.07.07,0,0,1-.07-.07.06.06,0,0,1,.07-.07h.11a1.27,1.27,0,0,0,1.2-1.17c0-.05,0-.07.07-.07a.06.06,0,0,1,.07.07V24.9h1c.06,0,.08,0,.08.07s0,.07-.08.07h-1Z"/></g></g></svg>